<mxfile host="app.diagrams.net" modified="2022-02-26T08:37:09.997Z" agent="5.0 (Macintosh; Intel Mac OS X 10_15_7) AppleWebKit/537.36 (KHTML, like Gecko) Chrome/98.0.4758.102 Safari/537.36" etag="wFyT-rhLhgztl7X3_dDu" version="16.4.3" type="github" pages="2">
  <diagram id="0_xyXw7jxBEiflA4tzRB" name="第 1 页">
    <mxGraphModel dx="1926" dy="1084" grid="1" gridSize="10" guides="1" tooltips="1" connect="1" arrows="1" fold="1" page="1" pageScale="1" pageWidth="500" pageHeight="400" math="0" shadow="0">
      <root>
        <mxCell id="0" />
        <mxCell id="1" parent="0" />
        <mxCell id="eppsNKGiJkBMlfzfscGE-29" value="" style="edgeStyle=orthogonalEdgeStyle;rounded=0;orthogonalLoop=1;jettySize=auto;html=1;fontFamily=Lucida Console;" edge="1" parent="1" source="eppsNKGiJkBMlfzfscGE-9" target="eppsNKGiJkBMlfzfscGE-6">
          <mxGeometry relative="1" as="geometry" />
        </mxCell>
        <mxCell id="eppsNKGiJkBMlfzfscGE-9" value="" style="rounded=0;whiteSpace=wrap;html=1;labelBackgroundColor=none;fontFamily=Lucida Console;strokeColor=#FFCF9C;strokeWidth=0;fillColor=#FFCF9C;shadow=0;" vertex="1" parent="1">
          <mxGeometry x="-350" y="150" width="700" height="170" as="geometry" />
        </mxCell>
        <mxCell id="eppsNKGiJkBMlfzfscGE-1" value="&lt;h3&gt;&lt;font face=&quot;Lucida Console&quot;&gt;Application&lt;/font&gt;&lt;/h3&gt;" style="rounded=0;whiteSpace=wrap;html=1;fillColor=#A4D4B4;fontFamily=Tahoma;labelBackgroundColor=none;strokeColor=#A4D4B4;strokeWidth=1;" vertex="1" parent="1">
          <mxGeometry x="-60" y="-30" width="120" height="60" as="geometry" />
        </mxCell>
        <mxCell id="eppsNKGiJkBMlfzfscGE-28" value="" style="edgeStyle=orthogonalEdgeStyle;rounded=0;orthogonalLoop=1;jettySize=auto;html=1;fontFamily=Lucida Console;" edge="1" parent="1" source="eppsNKGiJkBMlfzfscGE-6" target="eppsNKGiJkBMlfzfscGE-1">
          <mxGeometry relative="1" as="geometry" />
        </mxCell>
        <mxCell id="eppsNKGiJkBMlfzfscGE-6" value="SOA-Delegate" style="rounded=0;whiteSpace=wrap;html=1;labelBackgroundColor=none;fontFamily=Lucida Console;strokeColor=default;strokeWidth=0;fillColor=#B96D40;" vertex="1" parent="1">
          <mxGeometry x="-60" y="60" width="120" height="60" as="geometry" />
        </mxCell>
        <mxCell id="eppsNKGiJkBMlfzfscGE-12" value="" style="group" vertex="1" connectable="0" parent="1">
          <mxGeometry x="-330" y="180" width="140" height="110" as="geometry" />
        </mxCell>
        <mxCell id="eppsNKGiJkBMlfzfscGE-2" value="" style="rounded=0;whiteSpace=wrap;html=1;labelBackgroundColor=none;fontFamily=Lucida Console;strokeColor=default;strokeWidth=0;fillColor=#A4D4B4;" vertex="1" parent="eppsNKGiJkBMlfzfscGE-12">
          <mxGeometry width="140" height="110" as="geometry" />
        </mxCell>
        <mxCell id="eppsNKGiJkBMlfzfscGE-8" value="原生业务" style="shape=module;align=left;spacingLeft=20;align=center;verticalAlign=top;labelBackgroundColor=none;fontFamily=Lucida Console;strokeColor=default;strokeWidth=0;fillColor=#74BE8D;" vertex="1" parent="eppsNKGiJkBMlfzfscGE-12">
          <mxGeometry x="20" y="30" width="100" height="50" as="geometry" />
        </mxCell>
        <mxCell id="eppsNKGiJkBMlfzfscGE-10" value="原生容器" style="text;html=1;strokeColor=none;fillColor=none;align=center;verticalAlign=middle;whiteSpace=wrap;rounded=0;shadow=0;labelBackgroundColor=none;fontFamily=Lucida Console;" vertex="1" parent="eppsNKGiJkBMlfzfscGE-12">
          <mxGeometry width="60" height="30" as="geometry" />
        </mxCell>
        <mxCell id="eppsNKGiJkBMlfzfscGE-13" value="" style="group" vertex="1" connectable="0" parent="1">
          <mxGeometry x="-160" y="180" width="140" height="110" as="geometry" />
        </mxCell>
        <mxCell id="eppsNKGiJkBMlfzfscGE-14" value="" style="rounded=0;whiteSpace=wrap;html=1;labelBackgroundColor=none;fontFamily=Lucida Console;strokeColor=default;strokeWidth=0;fillColor=#A4D4B4;" vertex="1" parent="eppsNKGiJkBMlfzfscGE-13">
          <mxGeometry width="140" height="110" as="geometry" />
        </mxCell>
        <mxCell id="eppsNKGiJkBMlfzfscGE-15" value="WebApp业务" style="shape=module;align=left;spacingLeft=20;align=center;verticalAlign=top;labelBackgroundColor=none;fontFamily=Lucida Console;strokeColor=default;strokeWidth=0;fillColor=#74BE8D;" vertex="1" parent="eppsNKGiJkBMlfzfscGE-13">
          <mxGeometry x="20" y="30" width="100" height="50" as="geometry" />
        </mxCell>
        <mxCell id="eppsNKGiJkBMlfzfscGE-16" value="Web容器" style="text;html=1;strokeColor=none;fillColor=none;align=center;verticalAlign=middle;whiteSpace=wrap;rounded=0;shadow=0;labelBackgroundColor=none;fontFamily=Lucida Console;" vertex="1" parent="eppsNKGiJkBMlfzfscGE-13">
          <mxGeometry width="60" height="30" as="geometry" />
        </mxCell>
        <mxCell id="eppsNKGiJkBMlfzfscGE-17" value="" style="group" vertex="1" connectable="0" parent="1">
          <mxGeometry x="10" y="180" width="140" height="110" as="geometry" />
        </mxCell>
        <mxCell id="eppsNKGiJkBMlfzfscGE-18" value="" style="rounded=0;whiteSpace=wrap;html=1;labelBackgroundColor=none;fontFamily=Lucida Console;strokeColor=default;strokeWidth=0;fillColor=#A4D4B4;" vertex="1" parent="eppsNKGiJkBMlfzfscGE-17">
          <mxGeometry width="140" height="110" as="geometry" />
        </mxCell>
        <mxCell id="eppsNKGiJkBMlfzfscGE-19" value="ReactNative&#xa;业务" style="shape=module;align=left;spacingLeft=20;align=center;verticalAlign=top;labelBackgroundColor=none;fontFamily=Lucida Console;strokeColor=default;strokeWidth=0;fillColor=#74BE8D;" vertex="1" parent="eppsNKGiJkBMlfzfscGE-17">
          <mxGeometry x="20" y="30" width="100" height="50" as="geometry" />
        </mxCell>
        <mxCell id="eppsNKGiJkBMlfzfscGE-20" value="RN容器" style="text;html=1;strokeColor=none;fillColor=none;align=center;verticalAlign=middle;whiteSpace=wrap;rounded=0;shadow=0;labelBackgroundColor=none;fontFamily=Lucida Console;" vertex="1" parent="eppsNKGiJkBMlfzfscGE-17">
          <mxGeometry width="60" height="30" as="geometry" />
        </mxCell>
        <mxCell id="eppsNKGiJkBMlfzfscGE-21" value="" style="group" vertex="1" connectable="0" parent="1">
          <mxGeometry x="180" y="180" width="140" height="110" as="geometry" />
        </mxCell>
        <mxCell id="eppsNKGiJkBMlfzfscGE-22" value="" style="rounded=0;whiteSpace=wrap;html=1;labelBackgroundColor=none;fontFamily=Lucida Console;strokeColor=default;strokeWidth=0;fillColor=#A4D4B4;" vertex="1" parent="eppsNKGiJkBMlfzfscGE-21">
          <mxGeometry width="140" height="110" as="geometry" />
        </mxCell>
        <mxCell id="eppsNKGiJkBMlfzfscGE-23" value="Flutter&#xa;业务" style="shape=module;align=left;spacingLeft=20;align=center;verticalAlign=top;labelBackgroundColor=none;fontFamily=Lucida Console;strokeColor=default;strokeWidth=0;fillColor=#74BE8D;" vertex="1" parent="eppsNKGiJkBMlfzfscGE-21">
          <mxGeometry x="20" y="30" width="100" height="50" as="geometry" />
        </mxCell>
        <mxCell id="eppsNKGiJkBMlfzfscGE-24" value="Flutter容器" style="text;html=1;strokeColor=none;fillColor=none;align=center;verticalAlign=middle;whiteSpace=wrap;rounded=0;shadow=0;labelBackgroundColor=none;fontFamily=Lucida Console;" vertex="1" parent="eppsNKGiJkBMlfzfscGE-21">
          <mxGeometry width="70" height="30" as="geometry" />
        </mxCell>
      </root>
    </mxGraphModel>
  </diagram>
  <diagram id="u_w-3xSgV6lKoCjiyL1_" name="第 2 页">
    <mxGraphModel dx="1426" dy="684" grid="1" gridSize="10" guides="1" tooltips="1" connect="1" arrows="1" fold="1" page="1" pageScale="1" pageWidth="500" pageHeight="400" math="0" shadow="0">
      <root>
        <mxCell id="RzZpLhM93L8myud0JRjJ-0" />
        <mxCell id="RzZpLhM93L8myud0JRjJ-1" parent="RzZpLhM93L8myud0JRjJ-0" />
        <mxCell id="RzZpLhM93L8myud0JRjJ-33" value="" style="group" vertex="1" connectable="0" parent="RzZpLhM93L8myud0JRjJ-1">
          <mxGeometry x="20" width="900" height="500" as="geometry" />
        </mxCell>
        <mxCell id="RzZpLhM93L8myud0JRjJ-7" value="" style="rounded=0;whiteSpace=wrap;html=1;shadow=0;labelBackgroundColor=none;fontFamily=Lucida Console;fontColor=#FFFFFF;strokeColor=#A4D4B4;strokeWidth=1;fillColor=#CCC997;" vertex="1" parent="RzZpLhM93L8myud0JRjJ-33">
          <mxGeometry y="17.24137931034483" width="766.6666666666666" height="482.75862068965523" as="geometry" />
        </mxCell>
        <mxCell id="RzZpLhM93L8myud0JRjJ-2" value="应用层" style="rounded=0;whiteSpace=wrap;html=1;shadow=0;labelBackgroundColor=none;fontFamily=Lucida Console;strokeColor=none;strokeWidth=1;fillColor=#B96D40;fontColor=#FFFFFF;" vertex="1" parent="RzZpLhM93L8myud0JRjJ-33">
          <mxGeometry x="33.33333333333333" y="34.48275862068966" width="699.9999999999998" height="86.20689655172414" as="geometry" />
        </mxCell>
        <mxCell id="RzZpLhM93L8myud0JRjJ-3" value="Target" style="text;html=1;strokeColor=none;fillColor=none;align=center;verticalAlign=middle;whiteSpace=wrap;rounded=0;shadow=0;labelBackgroundColor=none;fontFamily=Lucida Console;" vertex="1" parent="RzZpLhM93L8myud0JRjJ-33">
          <mxGeometry x="33.33333333333333" y="34.48275862068966" width="66.66666666666666" height="34.48275862068966" as="geometry" />
        </mxCell>
        <mxCell id="RzZpLhM93L8myud0JRjJ-6" value="" style="rounded=0;whiteSpace=wrap;html=1;shadow=0;labelBackgroundColor=none;fontFamily=Lucida Console;fontColor=#FFFFFF;strokeColor=#A4D4B4;strokeWidth=1;fillColor=#669677;" vertex="1" parent="RzZpLhM93L8myud0JRjJ-33">
          <mxGeometry x="33.33333333333333" y="137.93103448275863" width="699.9999999999998" height="137.93103448275863" as="geometry" />
        </mxCell>
        <mxCell id="RzZpLhM93L8myud0JRjJ-9" value="" style="rounded=1;whiteSpace=wrap;html=1;shadow=0;labelBackgroundColor=none;fontFamily=Lucida Console;fontColor=#FFFFFF;strokeColor=#A4D4B4;strokeWidth=1;fillColor=#669677;" vertex="1" parent="RzZpLhM93L8myud0JRjJ-33">
          <mxGeometry x="49.999999999999986" y="146.55172413793105" width="158.33333333333331" height="112.06896551724138" as="geometry" />
        </mxCell>
        <mxCell id="RzZpLhM93L8myud0JRjJ-10" value="" style="rounded=1;whiteSpace=wrap;html=1;shadow=0;labelBackgroundColor=none;fontFamily=Lucida Console;fontColor=#FFFFFF;strokeColor=#A4D4B4;strokeWidth=1;fillColor=#669677;" vertex="1" parent="RzZpLhM93L8myud0JRjJ-33">
          <mxGeometry x="233.33333333333331" y="146.55172413793105" width="149.99999999999997" height="112.06896551724138" as="geometry" />
        </mxCell>
        <mxCell id="RzZpLhM93L8myud0JRjJ-11" value="" style="rounded=1;whiteSpace=wrap;html=1;shadow=0;labelBackgroundColor=none;fontFamily=Lucida Console;fontColor=#FFFFFF;strokeColor=#A4D4B4;strokeWidth=1;fillColor=#669677;" vertex="1" parent="RzZpLhM93L8myud0JRjJ-33">
          <mxGeometry x="566.6666666666666" y="146.55172413793105" width="149.99999999999997" height="110.3448275862069" as="geometry" />
        </mxCell>
        <mxCell id="RzZpLhM93L8myud0JRjJ-12" value="" style="rounded=1;whiteSpace=wrap;html=1;shadow=0;labelBackgroundColor=none;fontFamily=Lucida Console;fontColor=#FFFFFF;strokeColor=#A4D4B4;strokeWidth=1;fillColor=#669677;" vertex="1" parent="RzZpLhM93L8myud0JRjJ-33">
          <mxGeometry x="404.99999999999994" y="146.55172413793105" width="144.99999999999997" height="112.06896551724138" as="geometry" />
        </mxCell>
        <mxCell id="RzZpLhM93L8myud0JRjJ-13" value="跨端桥接引擎" style="rounded=0;whiteSpace=wrap;html=1;shadow=0;labelBackgroundColor=none;fontFamily=Helvetica;fontColor=#FFFFFF;strokeColor=#A4D4B4;strokeWidth=1;fillColor=#005F73;" vertex="1" parent="RzZpLhM93L8myud0JRjJ-33">
          <mxGeometry x="235.8333333333333" y="293.1034482758621" width="497.49999999999994" height="86.20689655172414" as="geometry" />
        </mxCell>
        <mxCell id="RzZpLhM93L8myud0JRjJ-14" value="基础组件" style="rounded=0;whiteSpace=wrap;html=1;shadow=0;labelBackgroundColor=none;fontFamily=Helvetica;fontColor=#FFFFFF;strokeColor=#A4D4B4;strokeWidth=1;fillColor=#CA6702;" vertex="1" parent="RzZpLhM93L8myud0JRjJ-33">
          <mxGeometry x="33.33333333333333" y="396.5517241379311" width="699.9999999999998" height="86.20689655172414" as="geometry" />
        </mxCell>
        <mxCell id="RzZpLhM93L8myud0JRjJ-16" value="原生业务" style="shape=module;align=left;spacingLeft=20;align=center;verticalAlign=top;shadow=0;labelBackgroundColor=none;fontFamily=Helvetica;fontColor=#FFFFFF;strokeColor=#FFFFFF;strokeWidth=1;fillColor=#BAC795;fontSize=8;" vertex="1" parent="RzZpLhM93L8myud0JRjJ-33">
          <mxGeometry x="74.99999999999999" y="189.65517241379314" width="99.99999999999997" height="51.724137931034484" as="geometry" />
        </mxCell>
        <mxCell id="RzZpLhM93L8myud0JRjJ-17" value="web业务" style="shape=module;align=left;spacingLeft=20;align=center;verticalAlign=top;shadow=0;labelBackgroundColor=none;fontFamily=Helvetica;fontColor=#FFFFFF;strokeColor=#FFFFFF;strokeWidth=1;fillColor=#BAC795;fontSize=8;" vertex="1" parent="RzZpLhM93L8myud0JRjJ-33">
          <mxGeometry x="258.33333333333326" y="189.65517241379314" width="99.99999999999997" height="51.724137931034484" as="geometry" />
        </mxCell>
        <mxCell id="RzZpLhM93L8myud0JRjJ-18" value="RN业务" style="shape=module;align=left;spacingLeft=20;align=center;verticalAlign=top;shadow=0;labelBackgroundColor=none;fontFamily=Helvetica;fontColor=#FFFFFF;strokeColor=#FFFFFF;strokeWidth=1;fillColor=#BAC795;fontSize=8;" vertex="1" parent="RzZpLhM93L8myud0JRjJ-33">
          <mxGeometry x="427.49999999999994" y="189.65517241379314" width="99.99999999999997" height="51.724137931034484" as="geometry" />
        </mxCell>
        <mxCell id="RzZpLhM93L8myud0JRjJ-19" value="Flutter业务" style="shape=module;align=left;spacingLeft=20;align=center;verticalAlign=top;shadow=0;labelBackgroundColor=none;fontFamily=Helvetica;fontColor=#FFFFFF;strokeColor=#FFFFFF;strokeWidth=1;fillColor=#BAC795;fontSize=9;" vertex="1" parent="RzZpLhM93L8myud0JRjJ-33">
          <mxGeometry x="583.3333333333333" y="189.65517241379314" width="116.66666666666666" height="51.724137931034484" as="geometry" />
        </mxCell>
        <mxCell id="RzZpLhM93L8myud0JRjJ-20" value="原生容器" style="text;html=1;strokeColor=none;fillColor=none;align=center;verticalAlign=middle;whiteSpace=wrap;rounded=0;shadow=0;labelBackgroundColor=none;fontFamily=Helvetica;fontSize=8;fontColor=#FFFFFF;" vertex="1" parent="RzZpLhM93L8myud0JRjJ-33">
          <mxGeometry x="66.66666666666666" y="155.17241379310346" width="116.66666666666666" height="17.24137931034483" as="geometry" />
        </mxCell>
        <mxCell id="RzZpLhM93L8myud0JRjJ-21" value="Web容器" style="text;html=1;strokeColor=none;fillColor=none;align=center;verticalAlign=middle;whiteSpace=wrap;rounded=0;shadow=0;labelBackgroundColor=none;fontFamily=Helvetica;fontSize=8;fontColor=#FFFFFF;" vertex="1" parent="RzZpLhM93L8myud0JRjJ-33">
          <mxGeometry x="249.99999999999997" y="155.17241379310346" width="116.66666666666666" height="17.24137931034483" as="geometry" />
        </mxCell>
        <mxCell id="RzZpLhM93L8myud0JRjJ-22" value="RN容器" style="text;html=1;strokeColor=none;fillColor=none;align=center;verticalAlign=middle;whiteSpace=wrap;rounded=0;shadow=0;labelBackgroundColor=none;fontFamily=Helvetica;fontSize=8;fontColor=#FFFFFF;" vertex="1" parent="RzZpLhM93L8myud0JRjJ-33">
          <mxGeometry x="419.1666666666666" y="155.17241379310346" width="116.66666666666666" height="17.24137931034483" as="geometry" />
        </mxCell>
        <mxCell id="RzZpLhM93L8myud0JRjJ-23" value="Flutter容器" style="text;html=1;strokeColor=none;fillColor=none;align=center;verticalAlign=middle;whiteSpace=wrap;rounded=0;shadow=0;labelBackgroundColor=none;fontFamily=Helvetica;fontSize=8;fontColor=#FFFFFF;" vertex="1" parent="RzZpLhM93L8myud0JRjJ-33">
          <mxGeometry x="583.3333333333333" y="155.17241379310346" width="116.66666666666666" height="17.24137931034483" as="geometry" />
        </mxCell>
        <mxCell id="RzZpLhM93L8myud0JRjJ-24" value="直接依赖" style="rounded=0;whiteSpace=wrap;html=1;shadow=0;labelBackgroundColor=none;fontFamily=Helvetica;fontColor=#FFFFFF;strokeColor=#A4D4B4;strokeWidth=1;fillColor=#005F73;" vertex="1" parent="RzZpLhM93L8myud0JRjJ-33">
          <mxGeometry x="33.33333333333333" y="293.1034482758621" width="186.66666666666663" height="86.20689655172414" as="geometry" />
        </mxCell>
        <mxCell id="RzZpLhM93L8myud0JRjJ-28" value="" style="edgeStyle=entityRelationEdgeStyle;startArrow=none;endArrow=none;segment=10;curved=1;fontFamily=Helvetica;fontSize=8;fontColor=#FFFFFF;" edge="1" parent="RzZpLhM93L8myud0JRjJ-33">
          <mxGeometry relative="1" as="geometry">
            <mxPoint x="733.3333333333333" y="69.20689655172414" as="sourcePoint" />
            <mxPoint x="799.7619047619048" y="34.47783251231524" as="targetPoint" />
          </mxGeometry>
        </mxCell>
        <mxCell id="RzZpLhM93L8myud0JRjJ-30" value="壳工程" style="text;html=1;strokeColor=none;fillColor=#3B1C32;align=center;verticalAlign=middle;whiteSpace=wrap;rounded=0;shadow=0;labelBackgroundColor=none;fontFamily=Helvetica;fontSize=8;fontColor=#FFFFFF;" vertex="1" parent="RzZpLhM93L8myud0JRjJ-33">
          <mxGeometry x="799.9999999999998" width="99.99999999999997" height="51.724137931034484" as="geometry" />
        </mxCell>
        <mxCell id="RzZpLhM93L8myud0JRjJ-31" value="" style="edgeStyle=entityRelationEdgeStyle;startArrow=none;endArrow=none;segment=10;curved=1;fontFamily=Helvetica;fontSize=8;fontColor=#FFFFFF;" edge="1" parent="RzZpLhM93L8myud0JRjJ-33">
          <mxGeometry relative="1" as="geometry">
            <mxPoint x="733.3333333333333" y="189.6551724137931" as="sourcePoint" />
            <mxPoint x="799.7619047619048" y="154.9261083743842" as="targetPoint" />
          </mxGeometry>
        </mxCell>
        <mxCell id="RzZpLhM93L8myud0JRjJ-32" value="容器化" style="text;html=1;strokeColor=none;fillColor=#3B1C32;align=center;verticalAlign=middle;whiteSpace=wrap;rounded=0;shadow=0;labelBackgroundColor=none;fontFamily=Helvetica;fontSize=8;fontColor=#FFFFFF;" vertex="1" parent="RzZpLhM93L8myud0JRjJ-33">
          <mxGeometry x="799.9999999999998" y="120.44827586206898" width="99.99999999999997" height="51.724137931034484" as="geometry" />
        </mxCell>
      </root>
    </mxGraphModel>
  </diagram>
</mxfile>
